<?xml version="1.0" encoding="UTF-8"?>
<svg id="Layer_1" xmlns="http://www.w3.org/2000/svg" version="1.1" viewBox="0 0 178 109.73">
  <!-- Generator: Adobe Illustrator 30.3.0, SVG Export Plug-In . SVG Version: 2.1.3 Build 182)  -->
  <defs>
    <style>
      .st0 {
        fill: #fff;
      }

      .st1 {
        fill: #fcb61a;
      }
    </style>
  </defs>
  <path class="st0" d="M65.4,71.51c0-.68-.34-1.2-1.86-1.2s-1.86.51-1.86,1.2v1.86c0,.56.2,1.12.73,1.59l5.13,4.39c.73.61,1.17,1.37,1.17,2.15v2.79c0,1.66-1.95,2.59-5.18,2.59-3.57,0-5.28-.8-5.28-2.59v-2.42h3.23v2.32c0,.83.64,1.32,2.05,1.32,1.32,0,1.96-.49,1.96-1.32v-2.47c0-.61-.25-1.07-.93-1.69l-4.75-4.12c-.88-.76-1.37-1.34-1.37-2.25v-2.12c0-1.74,1.81-2.59,5.08-2.59,3.62,0,5.08.86,5.08,2.47v2.25h-3.22v-2.15h.02Z"/>
  <path class="st0" d="M96.5,71.89c0-1.73,1.32-2.98,5.67-2.98s5.67,1.25,5.67,2.98v11.97c0,1.74-1.32,2.98-5.67,2.98s-5.67-1.25-5.67-2.98v-11.97ZM99.73,83.81c0,.98.39,1.66,2.44,1.66s2.44-.68,2.44-1.66v-11.88c0-.98-.39-1.66-2.44-1.66s-2.44.68-2.44,1.66v11.88Z"/>
  <path class="st0" d="M109.62,69.05h5.13c4.16,0,5.38.68,5.38,2.69v4.33c0,2-1.22,2.69-5.38,2.69h-1.91v7.94h-3.23v-17.65h0ZM114.42,77.39c1.47,0,2.49-.2,2.49-1.1v-4.76c0-.9-1.02-1.1-2.49-1.1h-1.57v6.96h1.57Z"/>
  <path class="st0" d="M128.19,71.47c0-.69-.34-1.2-1.86-1.2s-1.86.51-1.86,1.2v1.86c0,.56.2,1.12.73,1.59l5.13,4.4c.73.61,1.17,1.37,1.17,2.15v2.79c0,1.66-1.95,2.59-5.18,2.59-3.57,0-5.28-.81-5.28-2.59v-2.42h3.23v2.32c0,.83.64,1.32,2.05,1.32,1.32,0,1.95-.49,1.95-1.32v-2.47c0-.61-.24-1.07-.93-1.69l-4.74-4.13c-.88-.76-1.37-1.34-1.37-2.25v-2.13c0-1.74,1.81-2.59,5.08-2.59,3.61,0,5.08.85,5.08,2.47v2.25h-3.23v-2.15h.03Z"/>
  <path class="st0" d="M151.99,71.47c0-.68-.35-1.2-1.86-1.2s-1.86.51-1.86,1.2v1.86c0,.56.2,1.12.73,1.59l5.13,4.4c.73.61,1.17,1.37,1.17,2.15v2.79c0,1.66-1.96,2.59-5.18,2.59-3.57,0-5.28-.81-5.28-2.59v-2.42h3.23v2.32c0,.83.63,1.32,2.05,1.32,1.32,0,1.95-.49,1.95-1.32v-2.47c0-.61-.25-1.07-.93-1.69l-4.74-4.13c-.88-.76-1.37-1.34-1.37-2.25v-2.13c0-1.73,1.81-2.59,5.08-2.59,3.61,0,5.08.86,5.08,2.47v2.25h-3.22v-2.15h.02Z"/>
  <polygon class="st0" points="78.7 69.05 81.93 69.05 74.86 91.2 71.63 91.2 78.7 69.05"/>
  <polygon class="st0" points="73.6 82.81 69.24 69.09 72.47 69.09 75.22 77.74 73.6 82.81"/>
  <polygon class="st0" points="141.46 69.05 144.69 69.05 137.62 91.21 134.39 91.21 141.46 69.05"/>
  <polygon class="st0" points="136.38 82.77 132.01 69.05 135.24 69.05 137.99 77.7 136.38 82.77"/>
  <path class="st0" d="M94.51,86.7h.01v-14.95c0-2-1.22-2.69-5.38-2.69h-6.22v17.64h3.23v-16.27h2.65c1.47,0,2.49.2,2.49,1.1v15.17h3.22Z"/>
  <path class="st0" d="M156.57,71.23c0-1.18.96-2.05,2.09-2.05s2.07.87,2.07,2.05-.95,2.06-2.07,2.06-2.09-.87-2.09-2.06ZM158.67,72.95c.93,0,1.66-.73,1.66-1.72s-.73-1.71-1.66-1.71-1.68.73-1.68,1.71.73,1.72,1.68,1.72ZM158.22,72.42h-.36v-2.37h.9c.56,0,.84.21.84.67,0,.42-.27.61-.62.65l.68,1.04h-.4l-.63-1.03h-.41v1.03h0ZM158.65,71.09c.31,0,.58-.02.58-.38,0-.3-.27-.35-.52-.35h-.49v.73h.43Z"/>
  <path class="st0" d="M23.25,75.81c0,1.1-.25,1.99-.76,2.67s-1.19,1.01-2.05,1.01-1.57-.28-2.08-.84v3.49h-1.24v-10.05h1.13l.06.8c.51-.63,1.21-.94,2.11-.94s1.56.33,2.07.99c.51.66.76,1.57.76,2.74v.13ZM22.01,75.67c0-.82-.17-1.46-.52-1.94-.35-.47-.83-.71-1.44-.71-.75,0-1.31.33-1.69,1v3.47c.37.66.94.99,1.7.99.59,0,1.07-.24,1.42-.71s.53-1.17.53-2.1Z"/>
  <path class="st0" d="M28.37,79.36c-.07-.14-.13-.4-.17-.76-.58.6-1.27.9-2.07.9-.72,0-1.3-.2-1.76-.61-.46-.4-.69-.92-.69-1.54,0-.76.29-1.34.86-1.76s1.38-.63,2.43-.63h1.21v-.57c0-.43-.13-.78-.39-1.04s-.64-.39-1.15-.39c-.44,0-.81.11-1.11.34-.3.22-.45.49-.45.81h-1.25c0-.36.13-.71.39-1.05s.61-.6,1.05-.8c.44-.2.92-.3,1.45-.3.84,0,1.49.21,1.97.63.47.42.72.99.74,1.73v3.34c0,.67.09,1.2.26,1.59v.11h-1.32ZM26.31,78.41c.39,0,.76-.1,1.11-.3.35-.2.6-.46.76-.78v-1.49h-.97c-1.52,0-2.28.45-2.28,1.33,0,.39.13.69.39.91s.59.33,1,.33h0Z"/>
  <path class="st0" d="M33.78,73.21c-.19-.03-.39-.05-.61-.05-.81,0-1.37.35-1.66,1.04v5.15h-1.24v-7.26h1.21l.02.84c.41-.65.98-.97,1.73-.97.24,0,.42.03.55.09v1.15h0Z"/>
  <path class="st0" d="M37.1,70.34v1.76h1.36v.96h-1.36v4.51c0,.29.06.51.18.65.12.15.33.22.62.22.14,0,.34-.03.59-.08v1c-.33.09-.64.13-.95.13-.55,0-.97-.17-1.25-.5-.28-.34-.42-.81-.42-1.43v-4.5h-1.32v-.96h1.32v-1.76h1.24-.01Z"/>
  <path class="st0" d="M41.06,75.66c0-.71.14-1.35.42-1.92s.67-1.01,1.17-1.31c.5-.31,1.07-.46,1.71-.46.99,0,1.79.34,2.4,1.03.61.68.92,1.59.92,2.73v.09c0,.71-.14,1.34-.41,1.9-.27.56-.66,1-1.16,1.31s-1.08.47-1.73.47c-.98,0-1.78-.34-2.39-1.03-.61-.68-.92-1.59-.92-2.72v-.09h0ZM42.3,75.81c0,.81.19,1.45.56,1.94.37.49.87.73,1.5.73s1.13-.25,1.5-.74.56-1.19.56-2.08c0-.8-.19-1.44-.57-1.94-.38-.49-.88-.74-1.51-.74s-1.11.24-1.48.73c-.38.49-.56,1.19-.56,2.09h0Z"/>
  <path class="st0" d="M49.28,79.36v-6.3h-1.15v-.96h1.15v-.74c0-.78.21-1.38.62-1.8.42-.42,1-.64,1.76-.64.29,0,.57.04.85.11l-.07,1c-.21-.04-.43-.06-.67-.06-.4,0-.71.12-.93.35-.22.24-.33.57-.33,1.01v.77h1.55v.96h-1.55v6.3h-1.24,0Z"/>
  <path class="st0" d="M85.3,31.83c1.52,1.8,2.26,4.52,2.26,8.11v15.48h-7.88v-15.11c0-1.75-.32-3-.97-3.82-.65-.78-1.66-1.2-3-1.2-1.66,0-2.95.51-3.96,1.57s-1.47,2.44-1.47,4.19v14.38h-7.88v-25.62h7.65v3.64c.92-1.38,2.07-2.44,3.55-3.18,1.43-.74,3.09-1.11,4.88-1.11,3.04,0,5.35.92,6.82,2.67"/>
  <path class="st0" d="M96.22,55.06c-1.98-.55-3.69-1.34-5.11-2.3l2.07-5.44c1.38.92,2.95,1.66,4.61,2.21,1.66.51,3.36.78,5.07.78,1.2,0,2.17-.18,2.86-.6.69-.41,1.01-.97,1.01-1.66,0-.65-.23-1.11-.69-1.47s-1.34-.65-2.63-.92l-4.19-.92c-2.49-.55-4.29-1.43-5.48-2.58-1.15-1.15-1.75-2.76-1.75-4.79,0-1.61.46-3,1.38-4.24.92-1.2,2.21-2.17,3.92-2.86,1.7-.69,3.59-1.06,5.76-1.06,1.84,0,3.64.28,5.39.83s3.32,1.34,4.7,2.35l-2.07,5.21c-2.72-1.89-5.39-2.81-8.06-2.81-1.2,0-2.17.23-2.86.65s-1.06,1.01-1.06,1.8c0,.55.23,1.01.65,1.29.41.32,1.15.6,2.21.88l4.33,1.01c2.63.6,4.52,1.47,5.71,2.67s1.8,2.81,1.8,4.88c0,2.49-.97,4.42-2.95,5.81-1.98,1.43-4.7,2.12-8.11,2.12-2.35,0-4.52-.28-6.5-.83"/>
  <path class="st0" d="M143.36,55.06c-1.98-.55-3.69-1.34-5.11-2.3l2.07-5.44c1.38.92,2.95,1.66,4.61,2.21,1.66.51,3.36.78,5.07.78,1.2,0,2.17-.18,2.86-.6.69-.41,1.01-.97,1.01-1.66,0-.65-.23-1.11-.69-1.47s-1.34-.65-2.63-.92l-4.19-.92c-2.49-.55-4.29-1.43-5.48-2.58-1.15-1.15-1.75-2.76-1.75-4.79,0-1.61.46-3,1.38-4.24.92-1.2,2.21-2.17,3.92-2.86s3.59-1.06,5.76-1.06c1.84,0,3.64.28,5.39.83s3.32,1.34,4.7,2.35l-2.07,5.21c-2.72-1.89-5.39-2.81-8.06-2.81-1.2,0-2.17.23-2.86.65s-1.06,1.01-1.06,1.8c0,.55.23,1.01.65,1.29.41.32,1.15.6,2.21.88l4.33,1.01c2.63.6,4.52,1.47,5.71,2.67s1.8,2.81,1.8,4.88c0,2.49-.97,4.42-2.95,5.81-1.98,1.43-4.7,2.12-8.11,2.12-2.35,0-4.52-.28-6.5-.83"/>
  <polygon class="st1" points="32.77 18.52 17.1 55.43 27.79 55.43 42.91 18.52 32.77 18.52"/>
  <polygon class="st0" points="44.75 19.72 39.68 32.11 49.22 55.43 59.96 55.43 44.75 19.72"/>
  <path class="st0" d="M17.06,58.47h100.74l.18-.42H17.06v.42ZM127.78,58.05l-.18.42h32.01v-.42h-31.83Z"/>
  <polygon class="st0" points="131.11 29.81 126.95 39.49 122.15 29.81 114.37 29.81 123.06 48.58 118.81 58.46 126.59 58.46 138.9 29.81 131.11 29.81"/>
</svg>