<svg xmlns="http://www.w3.org/2000/svg" width="136" height="25" viewBox="0 0 136 25" fill="none"><g clip-path="url(#clip0_3350_6631)"><path d="M84.9357 11.2467L84.6397 11.1511L78.4371 9.12436L72.2344 7.09766C72.3061 9.94939 74.1385 12.5769 77.0052 13.5156L77.3011 13.6112L83.5038 15.6379L89.7065 17.6646C89.6348 14.8129 87.8024 12.1853 84.9357 11.2467Z" fill="#00E390"></path><path d="M90.6896 3.41302L81.3094 0.343073C78.4427 -0.59256 75.4116 0.447697 73.6719 2.70756L83.5184 5.92698L86.9441 7.04794L90.6896 3.41004V3.41302Z" fill="#00E390"></path><path d="M79.9395 19.2759L75.058 17.6797L71.3125 21.3176L80.6957 24.3875C83.5624 25.3232 86.5935 24.2829 88.3332 22.0231L79.9395 19.2759Z" fill="#00E390"></path><path d="M16.8115 1.77344H0V5.9524H6.20866V24.3034H10.6626V5.9524H16.8115V1.77344Z" fill="#151B25"></path><path d="M47.51 17.6188C46.8045 19.3794 45.3099 20.4287 43.5074 20.4287C41.0502 20.4287 39.0504 18.4169 39.0504 15.9418C39.0504 13.4667 40.9934 11.3952 43.4745 11.3952C45.3219 11.3952 46.8195 12.4354 47.4771 14.1752L47.513 14.2708L51.5873 12.6357L51.5485 12.54C50.1824 9.22497 47.1423 7.24609 43.4117 7.24609C38.4197 7.24609 34.6562 10.9856 34.6562 15.9418C34.6562 20.898 38.5154 24.6375 43.4446 24.6375C47.0975 24.6375 50.0867 22.6975 51.6411 19.3167L51.686 19.221L47.5489 17.5201L47.51 17.6158V17.6188Z" fill="#151B25"></path><path d="M63.0152 7.24891C61.1259 7.24891 59.4699 8.01416 58.3161 9.41312V0H53.9219V24.3025H58.3161V15.0867C58.3161 12.7312 59.6881 11.1499 61.7328 11.1499C63.7774 11.1499 64.997 12.4711 64.997 14.8715V24.3025H69.5437V14.2318C69.5437 9.92428 67.0446 7.24891 63.0181 7.24891H63.0152Z" fill="#151B25"></path><path d="M100.084 7.25C95.1397 7.25 91.2656 11.0703 91.2656 15.9457C91.2656 20.8212 95.1397 24.6414 100.084 24.6414C105.028 24.6414 108.932 20.8212 108.932 15.9457C108.932 11.0703 105.046 7.25 100.084 7.25ZM100.114 20.4326C97.6327 20.4326 95.6867 18.4477 95.6867 15.9158C95.6867 13.3839 97.6297 11.3991 100.114 11.3991C102.598 11.3991 104.538 13.4258 104.538 15.9158C104.538 18.4059 102.553 20.4326 100.114 20.4326Z" fill="#151B25"></path><path d="M112.52 7.10543V7.58371H109.797V11.5803H112.52V24.3025H116.914V11.5803H120.89V7.58371H116.914V6.8902C116.914 4.48386 117.147 4.0564 120.086 4.0564H120.89V0H119.688C114.263 0 112.523 1.72778 112.523 7.10543H112.52Z" fill="#151B25"></path><path d="M133.353 19.9011L133.29 19.7935L133.197 19.8742C132.728 20.2867 132.289 20.4601 131.736 20.4601C130.591 20.4601 130.032 19.7217 130.032 18.2062V11.5193H134.375V7.58542H130.032V1.48438L125.718 4.02224L125.667 4.05213V7.58841H122.609V11.5223H125.667V18.3646C125.667 22.6273 127.44 24.6121 131.242 24.6121C132.74 24.6121 134.127 24.1727 135.248 23.3387L135.32 23.2849L133.347 19.9041L133.353 19.9011Z" fill="#151B25"></path><path d="M22.8048 13.9774L20.7811 17.4958L32.5945 17.4838V15.7919C32.5945 10.8238 28.9626 7.21875 23.9586 7.21875C18.9546 7.21875 15.2031 11.051 15.2031 15.9443C15.2031 20.8377 18.841 24.6102 24.0513 24.6102C27.3843 24.6102 29.9012 23.3457 31.7486 20.7451L31.8114 20.6554L28.1734 18.53L28.1226 18.6137C27.2468 20.0426 25.8956 20.766 24.1111 20.766C24.0603 20.766 24.0154 20.757 23.9676 20.757C22.9034 20.7331 21.9708 20.4491 21.2264 19.935C20.4343 19.3312 19.8305 18.4792 19.5136 17.4808C19.3582 16.9876 19.2685 16.4615 19.2685 15.9115C19.2685 15.2239 19.4 14.5693 19.6392 13.9744C20.0995 12.8266 20.9604 11.9029 22.0365 11.3917C22.6164 11.1376 23.2591 10.9972 23.9556 10.9972C23.9586 10.9972 23.9616 10.9972 23.9646 10.9972C26.081 11.0001 27.6025 12.0822 28.1645 13.9744H22.8018L22.8048 13.9774Z" fill="#151B25"></path></g><defs><clipPath id="clip0_3350_6631"><rect width="135.323" height="24.73" fill="white"></rect></clipPath></defs></svg>